<mxfile host="app.diagrams.net" modified="2024-03-09T16:06:12.263Z" agent="Mozilla/5.0 (Windows NT 10.0; Win64; x64) AppleWebKit/537.36 (KHTML, like Gecko) Chrome/120.0.0.0 YaBrowser/24.1.0.0 Safari/537.36" etag="q8OAlYWixTGR6MDi9lEp" version="24.0.4" type="device">
  <diagram name="Страница — 1" id="dW-wqM3ZpH82boq5X5AG">
    <mxGraphModel dx="848" dy="567" grid="1" gridSize="10" guides="1" tooltips="1" connect="1" arrows="1" fold="1" page="1" pageScale="1" pageWidth="827" pageHeight="1169" math="0" shadow="0">
      <root>
        <mxCell id="0" />
        <mxCell id="1" parent="0" />
        <mxCell id="WZtpzyOW7Rg3mdRSGwb5-22" value="" style="edgeStyle=orthogonalEdgeStyle;rounded=0;orthogonalLoop=1;jettySize=auto;html=1;" edge="1" parent="1" source="WZtpzyOW7Rg3mdRSGwb5-9" target="WZtpzyOW7Rg3mdRSGwb5-15">
          <mxGeometry relative="1" as="geometry" />
        </mxCell>
        <mxCell id="WZtpzyOW7Rg3mdRSGwb5-9" value="&lt;b&gt;ЖАНР&lt;/b&gt;&lt;div&gt;&lt;br&gt;&lt;/div&gt;&lt;div&gt;1. ID&lt;/div&gt;&lt;div&gt;2. Название&lt;/div&gt;" style="rounded=0;whiteSpace=wrap;html=1;" vertex="1" parent="1">
          <mxGeometry x="97.5" y="130" width="120" height="60" as="geometry" />
        </mxCell>
        <mxCell id="WZtpzyOW7Rg3mdRSGwb5-20" value="" style="edgeStyle=orthogonalEdgeStyle;rounded=0;orthogonalLoop=1;jettySize=auto;html=1;" edge="1" parent="1" source="WZtpzyOW7Rg3mdRSGwb5-11" target="WZtpzyOW7Rg3mdRSGwb5-18">
          <mxGeometry relative="1" as="geometry" />
        </mxCell>
        <mxCell id="WZtpzyOW7Rg3mdRSGwb5-11" value="&lt;b&gt;ИСПОЛНИТЕЛИ&lt;/b&gt;&lt;div&gt;&lt;br&gt;&lt;/div&gt;&lt;div&gt;1. id&lt;/div&gt;&lt;div&gt;2. Имя&lt;/div&gt;" style="rounded=0;whiteSpace=wrap;html=1;" vertex="1" parent="1">
          <mxGeometry x="90" y="395" width="135" height="90" as="geometry" />
        </mxCell>
        <mxCell id="WZtpzyOW7Rg3mdRSGwb5-12" value="" style="edgeStyle=orthogonalEdgeStyle;rounded=0;orthogonalLoop=1;jettySize=auto;html=1;" edge="1" parent="1" source="WZtpzyOW7Rg3mdRSGwb5-13" target="WZtpzyOW7Rg3mdRSGwb5-14">
          <mxGeometry relative="1" as="geometry" />
        </mxCell>
        <mxCell id="WZtpzyOW7Rg3mdRSGwb5-13" value="&lt;b&gt;АЛЬБОМЫ&lt;/b&gt;&lt;div&gt;&lt;br&gt;&lt;/div&gt;&lt;div&gt;1. Название&lt;/div&gt;&lt;div&gt;2. Год выпуска&lt;/div&gt;&lt;div&gt;3. исполнитель&lt;/div&gt;" style="rounded=0;whiteSpace=wrap;html=1;" vertex="1" parent="1">
          <mxGeometry x="290" y="545" width="140" height="110" as="geometry" />
        </mxCell>
        <mxCell id="WZtpzyOW7Rg3mdRSGwb5-25" value="" style="edgeStyle=orthogonalEdgeStyle;rounded=0;orthogonalLoop=1;jettySize=auto;html=1;" edge="1" parent="1" source="WZtpzyOW7Rg3mdRSGwb5-14" target="WZtpzyOW7Rg3mdRSGwb5-24">
          <mxGeometry relative="1" as="geometry" />
        </mxCell>
        <mxCell id="WZtpzyOW7Rg3mdRSGwb5-14" value="&lt;b&gt;ТРЕКИ&lt;/b&gt;&lt;div&gt;&lt;br&gt;&lt;/div&gt;&lt;div&gt;1. Название&lt;/div&gt;&lt;div&gt;2. Длительность&lt;/div&gt;&lt;div&gt;3. Альбом&lt;/div&gt;" style="rounded=0;whiteSpace=wrap;html=1;" vertex="1" parent="1">
          <mxGeometry x="470" y="545" width="120" height="110" as="geometry" />
        </mxCell>
        <mxCell id="WZtpzyOW7Rg3mdRSGwb5-17" value="" style="edgeStyle=orthogonalEdgeStyle;rounded=0;orthogonalLoop=1;jettySize=auto;html=1;" edge="1" parent="1" source="WZtpzyOW7Rg3mdRSGwb5-15" target="WZtpzyOW7Rg3mdRSGwb5-11">
          <mxGeometry relative="1" as="geometry" />
        </mxCell>
        <mxCell id="WZtpzyOW7Rg3mdRSGwb5-15" value="&lt;b&gt;ЖАНР-ИСПОЛНИТЕЛЬ&lt;/b&gt;&lt;br&gt;&lt;div&gt;&lt;br&gt;&lt;/div&gt;&lt;div&gt;1. Жанр&lt;/div&gt;&lt;div&gt;2. Исполнитель&lt;/div&gt;" style="rounded=0;whiteSpace=wrap;html=1;" vertex="1" parent="1">
          <mxGeometry x="76.25" y="240" width="162.5" height="100" as="geometry" />
        </mxCell>
        <mxCell id="WZtpzyOW7Rg3mdRSGwb5-19" value="" style="edgeStyle=orthogonalEdgeStyle;rounded=0;orthogonalLoop=1;jettySize=auto;html=1;" edge="1" parent="1" source="WZtpzyOW7Rg3mdRSGwb5-18" target="WZtpzyOW7Rg3mdRSGwb5-13">
          <mxGeometry relative="1" as="geometry" />
        </mxCell>
        <mxCell id="WZtpzyOW7Rg3mdRSGwb5-18" value="&lt;b&gt;ИСПОЛНИТЕЛЬ-АЛЬБОМ&lt;/b&gt;&lt;div&gt;&lt;br&gt;&lt;/div&gt;&lt;div&gt;1. Имя исполнителя&lt;/div&gt;&lt;div&gt;2. Название альбома&lt;/div&gt;" style="rounded=0;whiteSpace=wrap;html=1;" vertex="1" parent="1">
          <mxGeometry x="72.5" y="550" width="170" height="100" as="geometry" />
        </mxCell>
        <mxCell id="WZtpzyOW7Rg3mdRSGwb5-21" value="&lt;b&gt;СБОРНИК&lt;/b&gt;&lt;div&gt;&lt;br&gt;&lt;/div&gt;&lt;div&gt;1. Название&lt;/div&gt;&lt;div&gt;2. Год выпуска&lt;/div&gt;" style="rounded=0;whiteSpace=wrap;html=1;" vertex="1" parent="1">
          <mxGeometry x="470" y="220" width="120" height="120" as="geometry" />
        </mxCell>
        <mxCell id="WZtpzyOW7Rg3mdRSGwb5-26" value="" style="edgeStyle=orthogonalEdgeStyle;rounded=0;orthogonalLoop=1;jettySize=auto;html=1;" edge="1" parent="1" source="WZtpzyOW7Rg3mdRSGwb5-24" target="WZtpzyOW7Rg3mdRSGwb5-21">
          <mxGeometry relative="1" as="geometry" />
        </mxCell>
        <mxCell id="WZtpzyOW7Rg3mdRSGwb5-24" value="&lt;b&gt;СБОРНИК-ТРЕК&lt;/b&gt;&lt;div&gt;&lt;br&gt;&lt;/div&gt;&lt;div&gt;1. Название сборника&lt;/div&gt;&lt;div&gt;2. Название трека&lt;/div&gt;" style="rounded=0;whiteSpace=wrap;html=1;" vertex="1" parent="1">
          <mxGeometry x="440" y="397.5" width="180" height="85" as="geometry" />
        </mxCell>
      </root>
    </mxGraphModel>
  </diagram>
</mxfile>
